<?xml version="1.0" encoding="UTF-8" standalone="no"?>
<!DOCTYPE svg PUBLIC "-//W3C//DTD SVG 1.1//EN" "http://www.w3.org/Graphics/SVG/1.1/DTD/svg11.dtd">
<svg width="100%" height="100%" viewBox="0 0 1500 500" version="1.1" xmlns="http://www.w3.org/2000/svg" xmlns:xlink="http://www.w3.org/1999/xlink" xml:space="preserve" xmlns:serif="http://www.serif.com/" style="fill-rule:evenodd;clip-rule:evenodd;stroke-linejoin:round;stroke-miterlimit:2;">
    <rect id="Artboard1" x="0" y="0" width="1500" height="500" style="fill:none;"/>
    <g id="Artboard11" serif:id="Artboard1">
        <g transform="matrix(0.846677,0,0,0.858293,4.34107,32.2561)">
            <g id="Lightbulb" transform="matrix(0.343683,0,0,0.343683,177.533,-21.2524)">
                <g transform="matrix(66.6667,0,0,66.6667,-717,0)">
                    <path d="M9.25,19.5C9.25,19.086 9.586,18.75 10,18.75L14,18.75C14.414,18.75 14.75,19.086 14.75,19.5C14.75,19.914 14.414,20.25 14,20.25L10,20.25C9.586,20.25 9.25,19.914 9.25,19.5ZM9.917,22C9.917,21.586 10.253,21.25 10.667,21.25L13.333,21.25C13.748,21.25 14.083,21.586 14.083,22C14.083,22.414 13.748,22.75 13.333,22.75L10.667,22.75C10.253,22.75 9.917,22.414 9.917,22Z"/>
                </g>
                <g transform="matrix(66.6667,0,0,66.6667,-717,0)">
                    <path d="M4.25,8.218C4.25,4.313 7.804,1.25 12,1.25C16.196,1.25 19.75,4.313 19.75,8.218L19.75,8.221C19.74,10.428 18.791,12.626 17.106,14.225L17.104,14.227L15.999,15.266C15.84,15.416 15.75,15.624 15.75,15.843C15.75,16.896 14.896,17.75 13.843,17.75L10.157,17.75C9.104,17.75 8.25,16.896 8.25,15.843C8.25,15.624 8.16,15.416 8.001,15.266L6.897,14.227L6.894,14.225C5.209,12.626 4.26,10.428 4.25,8.221L4.25,8.218ZM5.75,8.216C5.758,10.002 6.53,11.811 7.926,13.135C7.926,13.136 7.926,13.136 7.927,13.136L9.029,14.174C9.489,14.607 9.75,15.211 9.75,15.843C9.75,16.068 9.932,16.25 10.157,16.25L13.843,16.25C14.068,16.25 14.25,16.068 14.25,15.843C14.25,15.211 14.511,14.607 14.971,14.174L16.073,13.136C16.074,13.136 16.074,13.136 16.074,13.135C17.47,11.811 18.242,10.002 18.25,8.216C18.249,5.299 15.535,2.75 12,2.75C8.465,2.75 5.751,5.3 5.75,8.216Z"/>
                </g>
            </g>
            <g id="Heart" transform="matrix(11.1919,0,0,11.2642,71.7553,62.4575)">
                <path d="M8.962,18.911L9.426,18.322L8.962,18.911ZM12,5.501L11.46,6.021C11.601,6.168 11.796,6.251 12,6.251C12.204,6.251 12.399,6.168 12.54,6.021L12,5.501ZM15.038,18.911L15.503,19.5L15.038,18.911ZM9.426,18.322C7.91,17.127 6.253,15.96 4.938,14.48C3.649,13.028 2.75,11.335 2.75,9.137L1.25,9.137C1.25,11.803 2.361,13.836 3.817,15.476C5.247,17.087 7.071,18.375 8.497,19.5L9.426,18.322ZM2.75,9.137C2.75,6.986 3.965,5.183 5.624,4.424C7.236,3.687 9.402,3.883 11.46,6.021L12.54,4.981C10.099,2.444 7.264,2.025 5.001,3.06C2.785,4.073 1.25,6.425 1.25,9.137L2.75,9.137ZM8.497,19.5C9.01,19.904 9.56,20.334 10.117,20.66C10.674,20.985 11.31,21.25 12,21.25L12,19.75C11.69,19.75 11.326,19.629 10.874,19.365C10.421,19.101 9.952,18.737 9.426,18.322L8.497,19.5ZM15.503,19.5C16.929,18.375 18.753,17.087 20.183,15.476C21.64,13.836 22.75,11.803 22.75,9.137L21.25,9.137C21.25,11.335 20.351,13.028 19.062,14.48C17.747,15.96 16.09,17.127 14.574,18.322L15.503,19.5ZM22.75,9.137C22.75,6.425 21.215,4.073 18.999,3.06C16.736,2.025 13.902,2.444 11.46,4.981L12.54,6.021C14.598,3.883 16.764,3.687 18.376,4.424C20.035,5.183 21.25,6.986 21.25,9.137L22.75,9.137ZM14.574,18.322C14.048,18.737 13.579,19.101 13.126,19.365C12.674,19.629 12.31,19.75 12,19.75L12,21.25C12.69,21.25 13.326,20.985 13.883,20.66C14.441,20.334 14.99,19.904 15.503,19.5L14.574,18.322Z" style="fill-rule:nonzero;stroke:black;stroke-width:0.52px;"/>
            </g>
        </g>
        <g transform="matrix(172,0,0,172,1474.42,313.898)">
        </g>
        <text x="349.371px" y="313.898px" style="font-family:'Lato-Bold', 'Lato', sans-serif;font-weight:700;font-size:172px;">HealthInsights</text>
    </g>
</svg>
